<svg width="252" height="252" viewBox="0 0 252 252" fill="none" xmlns="http://www.w3.org/2000/svg">
<g clip-path="url(#clip0)">
<path fill-rule="evenodd" clip-rule="evenodd" d="M24.9518 -4.93568C33.8307 -10.7703 44.5612 -10.4062 52.9311 -7.89291C62.1094 -11.1278 72.1686 -9.37651 79.2897 -6.31064C95.5154 -14.797 116.402 -4.95921 118.595 0.748295C112.791 6.88783 100.89 18.5304 99.7245 15.9844C99.0415 14.4921 100.503 12.1389 101.86 9.9547C103.397 7.48083 104.8 5.22368 102.798 4.67951C91.2402 15.4688 87.9356 33.4779 87.8972 34.5953C81.7077 25.2677 80.0725 15.7179 79.828 9.45326C75.0177 13.9082 70.426 17.517 69.7245 15.9844C69.2328 14.9101 69.8527 13.3897 70.7449 11.8073C70.4637 10.0597 70.5087 8.35092 70.7774 6.72563C60.8498 17.5997 57.9333 33.546 57.8972 34.5953C53.46 27.9084 51.3634 21.1073 50.4418 15.4842C49.0219 16.3589 48.0224 16.6353 47.7245 15.9844C47.0431 14.4956 48.4967 12.1499 49.851 9.9699C49.766 8.27065 49.7838 6.7935 49.8462 5.60285C39.0576 16.4646 35.9346 33.5092 35.8972 34.5953C25.6641 19.1739 27.8798 3.14517 28.2474 2.35954C22.783 5.75253 19.9168 11.3035 19.1659 13.6593C16.7611 5.52196 22.0211 -2.12791 24.9518 -4.93568ZM239.927 13.6593C242.332 5.52196 237.072 -2.12792 234.142 -4.93568C222.162 -12.8081 206.811 -9.39569 198.436 -4.64554C198.335 -4.74731 198.237 -4.84407 198.142 -4.93568C187.627 -11.845 174.516 -10.0617 165.804 -6.31064C149.578 -14.797 128.691 -4.95921 126.498 0.748295C132.303 6.88783 144.203 18.5304 145.369 15.9844C146.052 14.4921 144.59 12.1389 143.233 9.9547C141.696 7.48083 140.294 5.22368 142.295 4.67951C153.853 15.4688 157.158 33.4779 157.196 34.5953C163.386 25.2677 165.021 15.7179 165.265 9.45326C170.076 13.9082 174.667 17.517 175.369 15.9844C175.861 14.9101 175.241 13.3897 174.348 11.8073C174.63 10.0597 174.585 8.35093 174.316 6.72564C184.244 17.5997 187.16 33.546 187.196 34.5953C196.106 21.1688 195.579 7.28191 195.05 3.39533C197.341 5.7278 200.035 8.36397 202.571 10.646C203.244 11.8562 203.691 12.9166 203.927 13.6593C204.076 13.1558 204.196 12.6542 204.288 12.1555C207.863 15.2175 210.817 17.189 211.369 15.9844C212.052 14.4921 210.59 12.1389 209.233 9.9547C207.696 7.48083 206.294 5.22368 208.295 4.67951C219.853 15.4688 223.158 33.4779 223.196 34.5953C233.429 19.1739 231.214 3.14517 230.846 2.35954C236.31 5.75253 239.177 11.3035 239.927 13.6593Z" fill="#818181" fill-opacity="0.4"/>
</g>
<defs>
<clipPath id="clip0">
<rect width="252" height="252" fill="white"/>
</clipPath>
</defs>
</svg>
