<svg width="252" height="252" viewBox="0 0 252 252" fill="none" xmlns="http://www.w3.org/2000/svg">
<g clip-path="url(#clip0)">
<path fill-rule="evenodd" clip-rule="evenodd" d="M93.5 29C84.481 29 76.4072 24.9526 70.996 18.5751C67.4927 21.9351 62.7375 24 57.5 24C52.0069 24 47.0442 21.7287 43.5 18.0739C39.9558 21.7287 34.9931 24 29.5 24C24.2605 24 19.5037 21.9336 16 18.5713C12.4963 21.9336 7.73948 24 2.5 24C-8.26955 24 -17 15.2696 -17 4.5C-17 -6.26955 -8.26955 -15 2.5 -15C7.73948 -15 12.4963 -12.9336 16 -9.57128C19.5037 -12.9336 24.2605 -15 29.5 -15C34.9931 -15 39.9558 -12.7287 43.5 -9.07389C47.0442 -12.7287 52.0069 -15 57.5 -15C60.8049 -15 63.9178 -14.1778 66.6452 -12.7269C71.2923 -22.9172 81.569 -30 93.5 -30C106 -30 116.684 -22.2256 120.981 -11.2484C122.737 -11.7382 124.588 -12 126.5 -12C128.412 -12 130.263 -11.7382 132.019 -11.2484C136.316 -22.2256 147 -30 159.5 -30C171.431 -30 181.708 -22.9172 186.355 -12.7269C189.082 -14.1778 192.195 -15 195.5 -15C200.993 -15 205.956 -12.7287 209.5 -9.07389C213.044 -12.7287 218.007 -15 223.5 -15C228.739 -15 233.496 -12.9336 237 -9.57128C240.504 -12.9336 245.261 -15 250.5 -15C261.27 -15 270 -6.26955 270 4.5C270 15.2696 261.27 24 250.5 24C245.261 24 240.504 21.9336 237 18.5713C233.496 21.9336 228.739 24 223.5 24C218.007 24 213.044 21.7287 209.5 18.0739C205.956 21.7287 200.993 24 195.5 24C190.262 24 185.507 21.9351 182.004 18.5751C176.593 24.9526 168.519 29 159.5 29C152.624 29 146.298 26.6477 141.282 22.7039C137.552 26.5848 132.308 29 126.5 29C120.692 29 115.448 26.5848 111.718 22.7039C106.702 26.6477 100.376 29 93.5 29Z" fill="#818181" fill-opacity="0.4"/>
</g>
<defs>
<clipPath id="clip0">
<rect width="252" height="252" fill="white"/>
</clipPath>
</defs>
</svg>
