<svg width="252" height="252" viewBox="0 0 252 252" fill="none" xmlns="http://www.w3.org/2000/svg">
<g clip-path="url(#clip0)">
<path d="M71.9871 -21C62.7092 1.89645 50.3615 15.3074 44.8575 21.2853C42.8041 23.5156 41.7032 24.7113 42.0697 24.979C54.0267 22.1439 63.9985 17.8605 72.2811 12.6587C68.5429 19.2248 65.3161 24.1201 63.1106 27.4659C60.9012 30.8177 59.7167 32.6147 60.0697 32.979C73.1891 27.7893 84.1099 20.3337 93.1594 11.5341C86.2192 26.1306 79.7639 35.9237 76.1106 41.4659C73.9012 44.8177 72.7167 46.6147 73.0697 46.979C90.8863 39.9312 104.648 28.7046 115.175 15.6081C109.005 27.9725 103.413 36.4557 100.111 41.4655C97.9015 44.8173 96.7167 46.6147 97.0697 46.979C126.117 35.4887 144.386 12.8909 155.431 -10.8083C146.315 11.9168 136.852 26.2722 132.111 33.4659C129.901 36.8177 128.717 38.6147 129.07 38.979C144.281 32.9618 156.537 23.8985 166.347 13.2261C159.718 26.8908 153.621 36.1407 150.111 41.4659C147.901 44.8177 146.717 46.6147 147.07 46.979C180.265 33.8478 199.384 6.20994 209.732 -21H71.9871Z" fill="#818181" fill-opacity="0.4"/>
</g>
<defs>
<clipPath id="clip0">
<rect width="252" height="252" fill="white"/>
</clipPath>
</defs>
</svg>
