<svg width="252" height="252" viewBox="0 0 252 252" fill="none" xmlns="http://www.w3.org/2000/svg">
<path d="M154.267 0C159.135 12.1254 165.613 19.2275 168.501 22.3933C169.578 23.5744 170.156 24.2076 169.963 24.3493C163.69 22.848 158.459 20.5796 154.113 17.8248C156.074 21.3021 157.767 23.8945 158.924 25.6664C160.084 27.4414 160.705 28.393 160.52 28.5859C153.637 25.8376 147.907 21.8893 143.159 17.2293C146.801 24.9592 150.187 30.1454 152.104 33.0804C153.263 34.8554 153.885 35.8071 153.699 36C144.352 32.2677 137.132 26.3223 131.609 19.3868C134.846 25.9347 137.78 30.4271 139.512 33.0802C140.671 34.8552 141.293 35.8071 141.108 36C125.868 29.9151 116.284 17.9478 110.489 5.39728C115.271 17.432 120.236 25.0342 122.724 28.8438C123.883 30.6188 124.504 31.5705 124.319 31.7634C116.339 28.5769 109.909 23.7772 104.762 18.1253C108.24 25.3618 111.438 30.2603 113.28 33.0804C114.439 34.8555 115.061 35.8071 114.875 36C97.4596 29.0461 87.4289 14.4097 82 0H154.267Z" fill="#818181" fill-opacity="0.4"/>
</svg>
