<svg width="1780" height="1568" viewBox="0 0 1780 1568" fill="none" xmlns="http://www.w3.org/2000/svg">
<path d="M0 0H1780V1568H0V0Z" fill="#2B94D1"/>
<g filter="url(#filter0_d)">
<path fill-rule="evenodd" clip-rule="evenodd" d="M824.311 777.072C826.617 779.831 827.77 783.997 827.77 789.569V808.133C827.77 809.901 827.22 811.294 826.121 812.312C825.021 813.33 823.533 813.839 821.657 813.839C819.78 813.839 818.305 813.33 817.233 812.312C816.16 811.294 815.624 809.901 815.624 808.133V790.131C815.624 787.453 815.128 785.497 814.136 784.265C813.144 783.032 811.602 782.416 809.511 782.416C806.991 782.416 804.966 783.22 803.438 784.827C801.91 786.435 801.146 788.578 801.146 791.257V808.133C801.146 809.901 800.609 811.294 799.537 812.312C798.465 813.33 796.99 813.839 795.113 813.839C793.236 813.839 791.748 813.33 790.649 812.312C789.55 811.294 789 809.901 789 808.133V778.639C789 776.978 789.576 775.639 790.729 774.621C791.882 773.603 793.37 773.094 795.193 773.094C796.856 773.094 798.21 773.589 799.255 774.581C800.301 775.572 800.824 776.844 800.824 778.398V779.523C802.218 777.38 804.028 775.746 806.253 774.621C808.479 773.496 810.986 772.933 813.774 772.933C818.493 772.933 822.005 774.313 824.311 777.072ZM840.3 811.469C837.136 809.781 834.696 807.397 832.98 804.316C831.264 801.235 830.406 797.605 830.406 793.426C830.406 789.247 831.264 785.618 832.98 782.537C834.696 779.456 837.136 777.085 840.3 775.424C843.464 773.764 847.137 772.933 851.32 772.933C855.502 772.933 859.175 773.764 862.339 775.424C865.503 777.085 867.943 779.456 869.659 782.537C871.375 785.618 872.233 789.247 872.233 793.426C872.233 797.605 871.375 801.235 869.659 804.316C867.943 807.397 865.503 809.781 862.339 811.469C859.175 813.156 855.502 814 851.32 814C847.137 814 843.464 813.156 840.3 811.469ZM860.167 793.426C860.167 789.622 859.403 786.783 857.875 784.908C856.347 783.032 854.162 782.095 851.32 782.095C845.421 782.095 842.472 785.872 842.472 793.426C842.472 800.981 845.421 804.758 851.32 804.758C857.218 804.758 860.167 800.981 860.167 793.426ZM933.187 776.831C935.493 779.429 936.646 783.675 936.646 789.569V808.133C936.646 810.009 936.083 811.428 934.957 812.393C933.831 813.357 932.383 813.839 930.613 813.839C928.898 813.839 927.45 813.357 926.27 812.393C925.09 811.428 924.5 810.009 924.5 808.133V789.408C924.5 786.836 924.058 785.028 923.173 783.983C922.288 782.939 920.934 782.416 919.111 782.416C916.859 782.416 915.063 783.193 913.722 784.747C912.382 786.301 911.711 788.47 911.711 791.257V808.133C911.711 810.009 911.148 811.428 910.022 812.393C908.896 813.357 907.448 813.839 905.679 813.839C903.963 813.839 902.515 813.357 901.335 812.393C900.155 811.428 899.566 810.009 899.566 808.133V789.408C899.566 786.836 899.123 785.028 898.238 783.983C897.354 782.939 896 782.416 894.176 782.416C891.924 782.416 890.128 783.193 888.787 784.747C887.447 786.301 886.776 788.47 886.776 791.257V808.133C886.776 810.009 886.2 811.428 885.047 812.393C883.894 813.357 882.46 813.839 880.744 813.839C879.028 813.839 877.58 813.357 876.4 812.393C875.221 811.428 874.631 810.009 874.631 808.133V778.639C874.631 776.871 875.234 775.505 876.441 774.54C877.647 773.576 879.108 773.094 880.824 773.094C882.433 773.094 883.774 773.563 884.846 774.5C885.918 775.438 886.455 776.737 886.455 778.398V779.202C887.742 777.166 889.417 775.612 891.482 774.54C893.546 773.469 895.892 772.933 898.52 772.933C901.362 772.933 903.762 773.509 905.719 774.661C907.676 775.813 909.191 777.675 910.263 780.246C911.497 777.996 913.253 776.215 915.532 774.902C917.811 773.589 920.398 772.933 923.294 772.933C927.584 772.933 930.882 774.232 933.187 776.831ZM941.583 812.393C940.43 811.428 939.854 810.009 939.854 808.133V778.8C939.854 776.925 940.444 775.505 941.623 774.54C942.803 773.576 944.251 773.094 945.967 773.094C947.683 773.094 949.117 773.576 950.27 774.54C951.423 775.505 951.999 776.925 951.999 778.8V808.133C951.999 810.009 951.423 811.428 950.27 812.393C949.117 813.357 947.683 813.839 945.967 813.839C944.197 813.839 942.736 813.357 941.583 812.393ZM940.899 766.098C939.666 764.886 939.049 763.246 939.049 761.178C939.049 759.109 939.666 757.484 940.899 756.302C942.133 755.12 943.822 754.529 945.967 754.529C948.058 754.529 949.734 755.135 950.994 756.347C952.254 757.558 952.884 759.168 952.884 761.178C952.884 763.246 952.268 764.886 951.034 766.098C949.801 767.309 948.112 767.915 945.967 767.915C943.822 767.915 942.133 767.309 940.899 766.098ZM990.633 802.91C991.304 803.767 991.639 804.865 991.639 806.205C991.639 807.115 991.371 807.959 990.835 808.736C990.298 809.513 989.548 810.169 988.582 810.705C986.759 811.669 984.641 812.46 982.228 813.076C979.815 813.692 977.59 814 975.552 814C971.262 814 967.522 813.17 964.331 811.509C961.141 809.848 958.687 807.477 956.971 804.396C955.256 801.316 954.398 797.686 954.398 793.507C954.398 789.488 955.229 785.926 956.891 782.818C958.553 779.711 960.859 777.286 963.808 775.545C966.758 773.804 970.109 772.933 973.863 772.933C977.456 772.933 980.606 773.723 983.314 775.304C986.022 776.884 988.127 779.135 989.628 782.055C991.13 784.975 991.88 788.39 991.88 792.301C991.88 793.48 991.599 794.377 991.036 794.994C990.473 795.61 989.682 795.918 988.663 795.918H966.141C966.516 799.079 967.482 801.369 969.037 802.789C970.592 804.209 972.817 804.919 975.713 804.919C977.268 804.919 978.662 804.731 979.895 804.356C981.129 803.981 982.496 803.472 983.998 802.829C984.748 802.508 985.472 802.226 986.169 801.985C986.866 801.744 987.483 801.624 988.019 801.624C989.092 801.624 989.963 802.052 990.633 802.91ZM968.635 783.501C967.24 784.975 966.409 787.104 966.141 789.89H981.665C981.504 787.051 980.794 784.908 979.533 783.461C978.273 782.014 976.49 781.291 974.185 781.291C971.879 781.291 970.029 782.028 968.635 783.501Z" fill="black" fill-opacity="0.02"/>
<path fill-rule="evenodd" clip-rule="evenodd" d="M824.311 775.543C826.617 778.302 827.77 782.467 827.77 788.04V806.604C827.77 808.372 827.22 809.765 826.121 810.783C825.021 811.801 823.533 812.31 821.657 812.31C819.78 812.31 818.305 811.801 817.233 810.783C816.16 809.765 815.624 808.372 815.624 806.604V788.602C815.624 785.923 815.128 783.968 814.136 782.735C813.144 781.503 811.602 780.887 809.511 780.887C806.991 780.887 804.966 781.691 803.438 783.298C801.91 784.905 801.146 787.048 801.146 789.727V806.604C801.146 808.372 800.609 809.765 799.537 810.783C798.465 811.801 796.99 812.31 795.113 812.31C793.236 812.31 791.748 811.801 790.649 810.783C789.55 809.765 789 808.372 789 806.604V777.11C789 775.449 789.576 774.109 790.729 773.091C791.882 772.073 793.37 771.565 795.193 771.565C796.856 771.565 798.21 772.06 799.255 773.051C800.301 774.042 800.824 775.315 800.824 776.869V777.994C802.218 775.851 804.028 774.217 806.253 773.091C808.479 771.966 810.986 771.404 813.774 771.404C818.493 771.404 822.005 772.783 824.311 775.543ZM840.3 809.939C837.136 808.252 834.696 805.867 832.98 802.787C831.264 799.706 830.406 796.076 830.406 791.897C830.406 787.718 831.264 784.088 832.98 781.008C834.696 777.927 837.136 775.556 840.3 773.895C843.464 772.234 847.137 771.404 851.32 771.404C855.502 771.404 859.175 772.234 862.339 773.895C865.503 775.556 867.943 777.927 869.659 781.008C871.375 784.088 872.233 787.718 872.233 791.897C872.233 796.076 871.375 799.706 869.659 802.787C867.943 805.867 865.503 808.252 862.339 809.939C859.175 811.627 855.502 812.471 851.32 812.471C847.137 812.471 843.464 811.627 840.3 809.939ZM860.167 791.897C860.167 788.093 859.403 785.254 857.875 783.378C856.347 781.503 854.162 780.566 851.32 780.566C845.421 780.566 842.472 784.343 842.472 791.897C842.472 799.452 845.421 803.229 851.32 803.229C857.218 803.229 860.167 799.452 860.167 791.897ZM933.187 775.302C935.493 777.9 936.646 782.146 936.646 788.04V806.604C936.646 808.479 936.083 809.899 934.957 810.863C933.831 811.828 932.383 812.31 930.613 812.31C928.898 812.31 927.45 811.828 926.27 810.863C925.09 809.899 924.5 808.479 924.5 806.604V787.879C924.5 785.307 924.058 783.499 923.173 782.454C922.288 781.409 920.934 780.887 919.111 780.887C916.859 780.887 915.063 781.664 913.722 783.218C912.382 784.771 911.711 786.941 911.711 789.727V806.604C911.711 808.479 911.148 809.899 910.022 810.863C908.896 811.828 907.448 812.31 905.679 812.31C903.963 812.31 902.515 811.828 901.335 810.863C900.155 809.899 899.566 808.479 899.566 806.604V787.879C899.566 785.307 899.123 783.499 898.238 782.454C897.354 781.409 896 780.887 894.176 780.887C891.924 780.887 890.128 781.664 888.787 783.218C887.447 784.771 886.776 786.941 886.776 789.727V806.604C886.776 808.479 886.2 809.899 885.047 810.863C883.894 811.828 882.46 812.31 880.744 812.31C879.028 812.31 877.58 811.828 876.4 810.863C875.221 809.899 874.631 808.479 874.631 806.604V777.11C874.631 775.342 875.234 773.975 876.441 773.011C877.647 772.047 879.108 771.565 880.824 771.565C882.433 771.565 883.774 772.033 884.846 772.971C885.918 773.909 886.455 775.208 886.455 776.869V777.672C887.742 775.636 889.417 774.083 891.482 773.011C893.546 771.94 895.892 771.404 898.52 771.404C901.362 771.404 903.762 771.98 905.719 773.132C907.676 774.284 909.191 776.145 910.263 778.717C911.497 776.467 913.253 774.685 915.532 773.373C917.811 772.06 920.398 771.404 923.294 771.404C927.584 771.404 930.882 772.703 933.187 775.302ZM941.583 810.863C940.43 809.899 939.854 808.479 939.854 806.604V777.27C939.854 775.395 940.444 773.975 941.623 773.011C942.803 772.047 944.251 771.565 945.967 771.565C947.683 771.565 949.117 772.047 950.27 773.011C951.423 773.975 951.999 775.395 951.999 777.27V806.604C951.999 808.479 951.423 809.899 950.27 810.863C949.117 811.828 947.683 812.31 945.967 812.31C944.197 812.31 942.736 811.828 941.583 810.863ZM940.899 764.568C939.666 763.357 939.049 761.717 939.049 759.649C939.049 757.58 939.666 755.955 940.899 754.773C942.133 753.591 943.822 753 945.967 753C948.058 753 949.734 753.606 950.994 754.817C952.254 756.029 952.884 757.639 952.884 759.649C952.884 761.717 952.268 763.357 951.034 764.568C949.801 765.78 948.112 766.386 945.967 766.386C943.822 766.386 942.133 765.78 940.899 764.568ZM990.633 801.38C991.304 802.238 991.639 803.336 991.639 804.675C991.639 805.586 991.371 806.43 990.835 807.207C990.298 807.984 989.548 808.64 988.582 809.176C986.759 810.14 984.641 810.93 982.228 811.547C979.815 812.163 977.59 812.471 975.552 812.471C971.262 812.471 967.522 811.64 964.331 809.979C961.141 808.319 958.687 805.948 956.971 802.867C955.256 799.786 954.398 796.156 954.398 791.977C954.398 787.959 955.229 784.396 956.891 781.289C958.553 778.181 960.859 775.757 963.808 774.016C966.758 772.274 970.109 771.404 973.863 771.404C977.456 771.404 980.606 772.194 983.314 773.775C986.022 775.355 988.127 777.605 989.628 780.525C991.13 783.445 991.88 786.861 991.88 790.772C991.88 791.951 991.599 792.848 991.036 793.464C990.473 794.08 989.682 794.388 988.663 794.388H966.141C966.516 797.55 967.482 799.84 969.037 801.26C970.592 802.68 972.817 803.389 975.713 803.389C977.268 803.389 978.662 803.202 979.895 802.827C981.129 802.452 982.496 801.943 983.998 801.3C984.748 800.978 985.472 800.697 986.169 800.456C986.866 800.215 987.483 800.094 988.019 800.094C989.092 800.094 989.963 800.523 990.633 801.38ZM968.635 781.972C967.24 783.445 966.409 785.575 966.141 788.361H981.665C981.504 785.521 980.794 783.378 979.533 781.932C978.273 780.485 976.49 779.762 974.185 779.762C971.879 779.762 970.029 780.499 968.635 781.972Z" fill="white"/>
</g>
<defs>
<filter id="filter0_d" x="780" y="748" width="220.88" height="79" filterUnits="userSpaceOnUse" color-interpolation-filters="sRGB">
<feFlood flood-opacity="0" result="BackgroundImageFix"/>
<feColorMatrix in="SourceAlpha" type="matrix" values="0 0 0 0 0 0 0 0 0 0 0 0 0 0 0 0 0 0 127 0"/>
<feOffset dy="4"/>
<feGaussianBlur stdDeviation="4.5"/>
<feColorMatrix type="matrix" values="0 0 0 0 0 0 0 0 0 0.458667 0 0 0 0 0.716667 0 0 0 0.55 0"/>
<feBlend mode="normal" in2="BackgroundImageFix" result="effect1_dropShadow"/>
<feBlend mode="normal" in="SourceGraphic" in2="effect1_dropShadow" result="shape"/>
</filter>
</defs>
</svg>
