<svg width="1780" height="1568" viewBox="0 0 1780 1568" fill="none" xmlns="http://www.w3.org/2000/svg">
<rect x="674" y="616" width="466" height="364" fill="white"/>
<path fill-rule="evenodd" clip-rule="evenodd" d="M1780 0H0V1568H1780V0ZM975.199 804.999C975.199 788.941 962.215 775.924 946.2 775.924C943.306 775.924 940.511 776.349 937.758 777.123C937.758 777.123 908.259 782.16 901.898 816.877C901.693 817.472 901.5 818.072 901.32 818.678L901.802 817.409C901.773 817.574 901.745 817.74 901.717 817.907C899.659 824.466 898.549 831.447 898.549 838.688C898.549 847.475 900.184 855.881 903.164 863.614C903.034 865.302 894.522 866.63 884.021 866.63C873.52 866.63 865.008 865.302 865.008 863.666C862.472 850.488 851.039 840.743 837.336 840.743C823.521 840.743 812.509 850.744 809.989 863.857C809.989 864.819 804.982 865.6 798.807 865.6C792.631 865.6 787.625 864.819 787.625 863.857C784.568 856.286 782.291 848.313 780.903 840.036C778.057 841.438 776.586 846.849 777.276 853.146C777.223 855.516 776.016 853.732 776.016 853.732C770.755 841.69 777.174 832.232 779.618 829.253C779.426 826.548 779.328 823.817 779.328 821.063C779.328 802.758 785.554 781.332 793.273 765.972C794.802 770.238 796.986 773.901 799.103 776.815C801.66 780.334 804.121 782.762 805.22 783.846C805.622 784.243 805.842 784.46 805.818 784.485C824.366 799.715 844.874 774.381 844.723 774.381C811.85 801.826 795.714 759 795.714 759L795.687 759.063C794.571 756.249 792.147 749.25 792.087 741.432C792.082 740.754 792.071 740.08 792.061 739.412C791.989 734.881 791.921 730.607 793.615 726.8C797.057 703.334 857.405 700.62 862.117 705.619C862.345 705.771 862.702 705.96 863.026 706.131C863.343 706.298 863.629 706.449 863.732 706.534C873.803 703.583 884.457 702 895.479 702C945.22 702 987.451 734.241 1002.52 779.016C1004.32 784.719 1005.21 790.818 1005.21 797.119C1005.21 825.856 984.969 849.505 957.998 855.204C957.363 855.458 956.759 855.537 956.14 855.537C951.187 855.537 947.171 850.497 947.171 844.28C947.171 838.918 949.634 834.242 953.632 833.109C966.046 829.817 975.199 818.48 975.199 804.999ZM954.951 850.551C956.843 850.394 958.157 847.526 957.886 844.146C957.614 840.766 955.86 838.153 953.967 838.31C952.074 838.467 950.76 841.335 951.031 844.715C951.303 848.095 953.058 850.708 954.951 850.551Z" fill="#40A5DB"/>
</svg>
