<svg width="252" height="252" viewBox="0 0 252 252" fill="none" xmlns="http://www.w3.org/2000/svg">
<path d="M193.94 211.469C193.94 174.205 163.732 144 126.469 144C89.2078 144 59 174.205 59 211.469H193.94Z" fill="#333333"/>
<path d="M79 167.96C91.1403 156.217 107.674 149 125.89 149C144.111 149 160.636 156.217 172.776 167.96C142.237 177.411 109.542 177.411 79 167.96V167.96Z" fill="white"/>
<path d="M126.002 187C112.711 187 100.841 196.732 93 212H159C157.449 208.979 155.739 206.174 153.892 203.619C148.35 195.952 141.568 190.529 134.096 188.235C131.478 187.418 128.772 187 126.002 187Z" fill="#F96EB3"/>
</svg>
