<svg width="252" height="252" viewBox="0 0 252 252" fill="none" xmlns="http://www.w3.org/2000/svg">
<path d="M56.7815 153.824C59.2938 182.434 91.4356 202.981 128.573 199.72C165.707 196.459 193.776 170.625 191.264 142.015L56.7815 153.824Z" fill="#393A43"/>
<path d="M56.7815 153.824C59.2938 182.434 91.4356 202.981 128.573 199.72C165.707 196.459 193.776 170.625 191.264 142.015L56.7815 153.824Z" fill="#393A43"/>
<path d="M61.116 157.459C63.1935 181.117 93.1988 197.807 128.135 194.739C163.069 191.672 189.707 170.008 187.629 146.349L61.116 157.459Z" fill="white"/>
<path d="M61.116 157.459C63.1935 181.117 93.1988 197.807 128.135 194.739C163.069 191.672 189.707 170.008 187.629 146.349L61.116 157.459Z" fill="white"/>
<path d="M67.1733 174.996L103.971 176.784L104.058 177.78L71.2723 181.663L67.1733 174.996Z" fill="#393A43"/>
<path d="M184.311 165.714L146.806 173.023L146.894 174.019L179.855 172.128L184.311 165.714Z" fill="#393A43"/>
<path d="M112.044 210.01C139.371 214.568 158.67 205.989 164.904 201.129L146.113 223.223C134.923 218.832 112.443 210.042 112.044 210.01Z" fill="#817F7F" fill-opacity="0.29"/>
</svg>
