<svg width="252" height="252" viewBox="0 0 252 252" fill="none" xmlns="http://www.w3.org/2000/svg">
<path d="M60.3028 150.875C65.033 234 92.7916 190.3 130.033 192C167.272 193.699 190.533 230.5 195.162 157.029L60.3028 150.875Z" fill="#393A43"/>
<path d="M60.3028 150.875C65.033 234 92.7916 190.3 130.033 192C167.272 193.699 190.533 230.5 195.162 157.029L60.3028 150.875Z" fill="#393A43"/>
<path d="M64.1164 155.053C67.5329 216.5 116.033 187 129.533 187C161.033 189.5 187.033 216.5 190.984 160.842L64.1164 155.053Z" fill="white"/>
<path d="M64.1164 155.053C67.5329 216.5 116.033 187 129.533 187C161.033 189.5 187.033 216.5 190.984 160.842L64.1164 155.053Z" fill="white"/>
<path d="M65.8521 172L102.086 178.659L102.041 179.658L69.0293 179.152L65.8521 172Z" fill="#393A43"/>
<path d="M190.767 177.732L152.624 179.996L152.579 180.995L185.499 183.498L190.767 177.732Z" fill="#393A43"/>
<path d="M100.739 208.71C116.777 202.638 138.645 198.877 154.31 206.927C141.677 212.674 136.842 216.867 132.751 226.33C122.244 220.492 101.13 208.794 100.739 208.71Z" fill="#817F7F" fill-opacity="0.29"/>
</svg>
