<svg width="252" height="252" viewBox="0 0 252 252" fill="none" xmlns="http://www.w3.org/2000/svg">
<path d="M192.265 137.854C186.451 247.89 159.207 188.474 121.876 188.795C84.5469 189.116 60.7668 236.732 57.0798 139.018L192.265 137.854Z" fill="#393A43"/>
<path d="M192.265 137.854C186.451 247.89 159.207 188.474 121.876 188.795C84.5469 189.116 60.7668 236.732 57.0798 139.018L192.265 137.854Z" fill="#393A43"/>
<path d="M188.391 143.199C191.991 197.074 153.628 173.848 122.572 172.239C90.9816 173.92 64.2455 191.782 61.2165 144.294L188.391 143.199Z" fill="white"/>
<path d="M188.391 143.199C191.991 197.074 153.628 173.848 122.572 172.239C90.9816 173.92 64.2455 191.782 61.2165 144.294L188.391 143.199Z" fill="white"/>
<path d="M150.879 206.898C135.023 200.367 113.272 195.979 97.3817 203.575C109.845 209.682 114.557 214.013 118.373 223.59C129.044 218.057 150.486 206.971 150.879 206.898Z" fill="#817F7F" fill-opacity="0.29"/>
</svg>
