<svg width="252" height="252" viewBox="0 0 252 252" fill="none" xmlns="http://www.w3.org/2000/svg">
<path d="M59 144C59 181.264 89.2078 211.469 126.471 211.469C163.732 211.469 193.94 181.264 193.94 144L59 144Z" fill="#393A43"/>
<path d="M71 144H182V164.958C182 167.508 180.076 169.652 177.541 169.919C138.403 174.045 114.6 174.01 75.4642 169.916C72.9264 169.65 71 167.506 71 164.954V144Z" fill="white"/>
<rect x="71" y="144" width="111" height="5" fill="#393A43"/>
<path opacity="0.2" d="M158 197.727C158 203.953 144.121 209 127 209C109.879 209 96 203.953 96 197.727C96 191.502 109.879 189 127 189C144.121 189 158 191.502 158 197.727Z" fill="#F96EB3"/>
</svg>
