<svg width="252" height="252" viewBox="0 0 252 252" fill="none" xmlns="http://www.w3.org/2000/svg">
<path d="M161 171C161 188.121 147.121 202 130 202C112.879 202 99 188.121 99 171C99 153.879 112.879 147 130 147C147.121 147 161 153.879 161 171Z" fill="#393A43"/>
<path d="M151 158C151 164.537 140.976 174 129.265 174C117.554 174 107 165.837 107 159.3C107 159.3 113.5 153 129.265 153C145.03 153 151 158 151 158Z" fill="#F2F2F2"/>
<path d="M157.5 205C134.7 225.8 110.333 213.667 101 205L130.5 232.5C141.167 221.667 158.7 205 157.5 205Z" fill="#817F7F" fill-opacity="0.29"/>
</svg>
