<svg width="252" height="252" viewBox="0 0 252 252" fill="none" xmlns="http://www.w3.org/2000/svg">
<path d="M163 171C163 188.121 147.121 202 130 202C112.879 202 95 188.121 95 171C95 153.879 112.879 159 130 159C147.121 159 163 153.879 163 171Z" fill="#393A43"/>
<path d="M150 190.727C150 196.953 141.046 202 130 202C118.954 202 110 196.953 110 190.727C110 184.502 118.954 182 130 182C141.046 182 150 184.502 150 190.727Z" fill="#F96EB3"/>
<path d="M158.5 205C135.7 225.8 111.333 213.667 102 205L131.5 232.5C142.167 221.667 159.7 205 158.5 205Z" fill="#817F7F" fill-opacity="0.29"/>
</svg>
