<svg width="252" height="252" viewBox="0 0 252 252" fill="none" xmlns="http://www.w3.org/2000/svg">
<path d="M78.5427 142.839C80.376 136.689 89.1542 132.641 97.7066 134.423C116.717 138.305 135.646 138.305 154.584 134.423C163.137 132.641 171.915 136.689 173.748 142.896C184.206 178.629 161.385 218.46 126.191 218.46C90.6805 218.46 68.1569 178.469 78.5427 142.839Z" fill="#393A43"/>
<path d="M93.7238 191.139C94.9668 188.955 100.918 187.517 106.716 188.15C119.605 189.529 132.438 189.529 145.277 188.15C151.075 187.517 157.027 188.955 158.269 191.16C165.36 203.852 149.887 218 126.027 218C101.953 218 86.6827 203.795 93.7238 191.139Z" fill="#F96EB3"/>
<path d="M126.008 156C145.05 156 161.44 151.979 169 146.177C166.43 140.985 159.21 137.811 152.113 139.42C134.738 143.289 117.354 143.289 99.9032 139.42C92.7904 137.811 85.5616 140.992 83 146.164C90.5439 151.979 106.95 156 126.008 156Z" fill="white"/>
<path d="M154.5 218C131.7 238.8 107.333 226.667 98 218L127.5 245.5C138.167 234.667 155.7 218 154.5 218Z" fill="#817F7F" fill-opacity="0.29"/>
</svg>
