<svg width="252" height="252" viewBox="0 0 252 252" fill="none" xmlns="http://www.w3.org/2000/svg">
<path d="M59 144C59 181.264 89.2078 211.469 126.471 211.469C163.732 211.469 193.94 181.264 193.94 144L59 144Z" fill="#393A43"/>
<path d="M166.189 189.593C169.473 190.7 170.135 194.837 167.405 196.972C155.956 205.926 141.543 211.257 125.887 211.257C110.264 211.257 95.8879 205.952 84.4533 197.037C81.6972 194.888 82.3929 190.715 85.7146 189.629C99.0005 185.285 112.501 186.052 125.887 186C139.556 185.947 153.107 185.187 166.189 189.593Z" fill="#F96EB3"/>
<path fill-rule="evenodd" clip-rule="evenodd" d="M124 144.003L74.3934 144.003C75.6175 145.487 76.904 146.919 78.2489 148.293C87.663 157.914 99.9373 164.73 113.695 167.361C116.733 167.952 119.846 168.33 123.02 168.489L124 144.003ZM129.959 168.486C149.514 167.49 166.865 158.172 178.548 144.003L128 144.003L129.959 168.486Z" fill="white"/>
<path d="M157.5 211C134.7 231.8 110.333 219.667 101 211L130.5 238.5C141.167 227.667 158.7 211 157.5 211Z" fill="#817F7F" fill-opacity="0.29"/>
</svg>
