<svg width="252" height="252" viewBox="0 0 252 252" fill="none" xmlns="http://www.w3.org/2000/svg">
<path d="M59 144C59 181.264 89.2078 211.469 126.471 211.469C163.732 211.469 193.94 181.264 193.94 144L59 144Z" fill="#393A43"/>
<path d="M59 144C59 181.264 89.2078 211.469 126.471 211.469C163.732 211.469 193.94 181.264 193.94 144L59 144Z" fill="#393A43"/>
<path d="M63 148C63 180.586 91.4303 207 126.501 207C161.57 207 190 180.586 190 148L63 148Z" fill="white"/>
<path d="M63 148C63 180.586 91.4303 207 126.501 207C161.57 207 190 180.586 190 148L63 148Z" fill="white"/>
<path d="M67.5 172L104 177V178L71 179L67.5 172Z" fill="#393A43"/>
<path d="M187.5 172L151 177V178L184 179L187.5 172Z" fill="#393A43"/>
</svg>
