<svg width="252" height="252" viewBox="0 0 252 252" fill="none" xmlns="http://www.w3.org/2000/svg">
<path d="M193.94 205.469C193.94 168.205 163.732 138 126.469 138C89.2078 138 59 168.205 59 205.469L193.94 205.469Z" fill="#393A43"/>
<path d="M193.94 205.469C193.94 168.205 163.732 138 126.469 138C89.2078 138 59 168.205 59 205.469L193.94 205.469Z" fill="#393A43"/>
<path d="M189.94 201.469C189.94 168.883 161.51 142.469 126.439 142.469C91.3705 142.469 62.9402 168.883 62.9402 201.469L189.94 201.469Z" fill="white"/>
<path d="M189.94 201.469C189.94 168.883 161.51 142.469 126.439 142.469C91.3705 142.469 62.9402 168.883 62.9402 201.469L189.94 201.469Z" fill="white"/>
<path d="M185.44 177.469L148.94 172.469L148.94 171.469L181.94 170.469L185.44 177.469Z" fill="#393A43"/>
<path d="M65.4402 177.469L101.94 172.469L101.94 171.469L68.9402 170.469L65.4402 177.469Z" fill="#393A43"/>
</svg>
