<svg width="158" height="158" viewBox="0 0 158 158" fill="none" xmlns="http://www.w3.org/2000/svg">
<rect width="158" height="158" fill="#008CFC"/>
<path fill-rule="evenodd" clip-rule="evenodd" d="M39 42H58.974L74.3599 60.8751H103.97V54.7551C103.97 50.232 103.463 47.4096 102.45 46.2879C101.111 44.7681 98.9944 44.0083 96.0996 44.0083H93.5486V42H119.167V44.0083H116.562C113.45 44.0083 111.243 44.9491 109.94 46.8307C109.144 47.9886 108.746 50.6301 108.746 54.7551V116.794H106.792L88.5471 94.508H58.2684V102.845C58.2684 107.368 58.7569 110.19 59.7339 111.312C61.1089 112.832 63.2257 113.592 66.0843 113.592H68.6896V115.6H43.0708V113.592H45.6218C48.7699 113.592 50.9953 112.651 52.2979 110.769C53.094 109.611 53.492 106.97 53.492 102.845V51.6613C51.3571 49.1646 49.7288 47.5182 48.6071 46.7221C47.5215 45.926 45.9113 45.1843 43.7764 44.4968C42.727 44.1711 41.1349 44.0083 39 44.0083V42ZM103.97 65.4355H78.0773L103.97 97.1999V65.4355ZM58.2684 57.5233L84.8136 89.9476H58.2684V57.5233Z" fill="white"/>
</svg>
