<svg width="252" height="252" viewBox="0 0 252 252" fill="none" xmlns="http://www.w3.org/2000/svg">
<path d="M77.8238 125.721C101.475 125.721 120.648 106.532 120.648 82.8607C120.648 59.1894 101.475 40 77.8238 40C54.1729 40 35 59.1894 35 82.8607C35 106.532 54.1729 125.721 77.8238 125.721Z" fill="white"/>
<path d="M108.486 80.1483C108.486 92.1625 98.7566 101.892 86.7424 101.818C74.8018 101.818 65.0725 92.1625 65.0725 80.1483C65.0725 68.2077 74.8018 58.4784 86.8161 58.4784C98.7566 58.4857 108.486 68.2077 108.486 80.1483Z" fill="#3E4347"/>
<path d="M72.957 75.6995C71.5281 74.1098 72.503 71.0806 75.0316 68.9854C77.4868 66.8845 80.5568 66.3839 81.9858 67.9736C83.3355 69.6311 82.3663 72.5869 79.9111 74.6878C77.4502 76.8622 74.3067 77.357 72.957 75.6995Z" fill="white"/>
<path d="M175.058 125.721C198.709 125.721 217.882 106.532 217.882 82.8607C217.882 59.1894 198.709 40 175.058 40C151.407 40 132.234 59.1894 132.234 82.8607C132.234 106.532 151.407 125.721 175.058 125.721Z" fill="white"/>
<path d="M142.273 80.1483C142.273 92.1625 152.003 101.892 164.017 101.818C175.957 101.818 185.687 92.1625 185.687 80.1483C185.687 68.2077 175.957 58.4784 163.943 58.4784C152.003 58.4857 142.273 68.2077 142.273 80.1483Z" fill="#3E4347"/>
<path d="M151.487 76.0207C152.961 77.5685 156.057 76.8314 158.341 74.4728C160.626 72.1879 161.363 69.1659 159.889 67.6181C158.341 66.1439 155.319 66.881 153.035 69.1659C150.676 71.4508 149.939 74.5465 151.487 76.0207Z" fill="white"/>
<path d="M32.5811 116.943C36.0944 106.6 48.1499 117.099 66.0976 123.196C84.0454 129.293 101.089 128.678 97.5756 139.021C94.0623 149.364 76.6646 152.806 58.7168 146.709C40.7691 140.612 29.0677 127.286 32.5811 116.943Z" fill="#B8B8B8" fill-opacity="0.15"/>
<path d="M222.626 118.682C219.303 108.276 207.057 118.553 189.001 124.32C170.945 130.088 153.915 129.162 157.239 139.567C160.562 149.972 177.894 153.732 195.95 147.965C214.007 142.197 225.95 129.087 222.626 118.682Z" fill="#B8B8B8" fill-opacity="0.15"/>
</svg>
