<svg width="252" height="252" viewBox="0 0 252 252" fill="none" xmlns="http://www.w3.org/2000/svg">
<path fill-rule="evenodd" clip-rule="evenodd" d="M207.412 99.215C209.949 94.5891 211.371 89.3902 211.369 83.8955C211.362 64.6069 193.799 48.9772 172.142 48.9856C150.484 48.994 132.933 64.6373 132.941 83.9259C132.943 89.4207 134.37 94.6185 136.91 99.2424L207.412 99.215Z" fill="#7E7E7E" fill-opacity="0.18"/>
<path fill-rule="evenodd" clip-rule="evenodd" d="M112.09 99.2874C114.63 94.6549 116.055 89.4485 116.053 83.9458C116.045 64.6295 98.457 48.9773 76.7685 48.9857C55.0799 48.9942 37.504 64.66 37.5115 83.9763C37.5136 89.479 38.9425 94.6843 41.4863 99.3149L112.09 99.2874Z" fill="#7E7E7E" fill-opacity="0.18"/>
<path fill-rule="evenodd" clip-rule="evenodd" d="M40.298 71.8181C37.6616 76.6215 36.1819 82.0205 36.1819 87.7272C36.1819 107.76 54.4161 124 76.9092 124C99.4022 124 117.636 107.76 117.636 87.7272C117.636 82.0205 116.157 76.6215 113.52 71.8181H40.298Z" fill="white"/>
<path fill-rule="evenodd" clip-rule="evenodd" d="M81.6129 104.286C91.9192 104.286 100.256 95.8281 100.256 85.5218C100.256 75.2156 91.9192 66.8181 81.6129 66.8181C71.2462 66.8181 62.9092 75.2156 62.9092 85.5218C62.9092 95.8281 71.2462 104.226 81.6129 104.286ZM84.3749 75.1232C85.6919 73.8062 88.5128 74.4917 90.6755 76.6544C92.8381 78.817 93.5236 81.6379 92.2066 82.955C90.8895 84.272 88.0687 83.5865 85.906 81.4238C83.7433 79.2612 83.0578 76.4403 84.3749 75.1232Z" fill="#3E4347"/>
<path fill-rule="evenodd" clip-rule="evenodd" d="M135.753 71.8181C133.116 76.6215 131.636 82.0205 131.636 87.7272C131.636 107.76 149.871 124 172.364 124C194.857 124 213.091 107.76 213.091 87.7272C213.091 82.0205 211.611 76.6215 208.975 71.8181H135.753Z" fill="white"/>
<path fill-rule="evenodd" clip-rule="evenodd" d="M166.886 104.286C177.192 104.286 185.529 95.8281 185.529 85.5218C185.529 75.2156 177.192 66.8181 166.886 66.8181C156.519 66.8181 148.182 75.2156 148.182 85.5218C148.182 95.8281 156.519 104.226 166.886 104.286ZM169.648 75.1232C170.965 73.8062 173.786 74.4917 175.948 76.6544C178.111 78.817 178.796 81.6379 177.479 82.955C176.162 84.272 173.341 83.5865 171.179 81.4238C169.016 79.2612 168.331 76.4403 169.648 75.1232Z" fill="#3E4347"/>
<path d="M211.698 75.6083C182.719 72.762 153.429 71.2753 138.53 73.9788C134.33 74.741 128.624 71.313 127.522 67.1891C126.573 63.6388 129.312 61.1568 132.983 60.9987C161.272 59.7804 194.993 67.2715 212.545 72.4429C219.755 74.5672 219.178 76.343 211.698 75.6083Z" fill="#393939"/>
<path d="M34.8159 75.6083C63.7948 72.762 93.0848 71.2753 107.984 73.9788C112.184 74.741 117.89 71.313 118.992 67.1891C119.941 63.6388 117.202 61.1568 113.53 60.9987C85.2422 59.7804 51.5211 67.2715 33.9689 72.4429C26.7589 74.5672 27.3354 76.343 34.8159 75.6083Z" fill="#393939"/>
</svg>
