<svg width="252" height="252" viewBox="0 0 252 252" fill="none" xmlns="http://www.w3.org/2000/svg">
<path fill-rule="evenodd" clip-rule="evenodd" d="M44.3711 83.8737C41.8345 88.4997 40.4118 93.6986 40.4139 99.1933C40.4214 118.482 57.9843 134.112 79.6416 134.103C101.299 134.095 118.85 118.451 118.842 99.1628C118.84 93.6681 117.413 88.4703 114.873 83.8463L44.3711 83.8737Z" fill="#7E7E7E" fill-opacity="0.18"/>
<path fill-rule="evenodd" clip-rule="evenodd" d="M139.693 83.8013C137.153 88.4339 135.728 93.6403 135.731 99.1429C135.738 118.459 153.326 134.111 175.015 134.103C196.703 134.095 214.279 118.429 214.272 99.1124C214.27 93.6098 212.841 88.4045 210.297 83.7739L139.693 83.8013Z" fill="#7E7E7E" fill-opacity="0.18"/>
<path fill-rule="evenodd" clip-rule="evenodd" d="M211.485 111.271C214.122 106.467 215.601 101.068 215.601 95.3615C215.601 75.3286 197.367 59.0888 174.874 59.0888C152.381 59.0888 134.147 75.3286 134.147 95.3615C134.147 101.068 135.626 106.467 138.263 111.271L211.485 111.271Z" fill="white"/>
<path fill-rule="evenodd" clip-rule="evenodd" d="M116.031 111.271C118.667 106.467 120.147 101.068 120.147 95.3615C120.147 75.3286 101.913 59.0888 79.4195 59.0888C56.9264 59.0888 38.6922 75.3286 38.6922 95.3615C38.6922 101.068 40.1719 106.467 42.8083 111.271L116.031 111.271Z" fill="white"/>
<path fill-rule="evenodd" clip-rule="evenodd" d="M84.1231 114.404C94.4294 114.404 102.766 105.947 102.766 95.6403C102.766 85.334 94.4294 76.9366 84.1231 76.9366C73.7565 76.9366 65.4194 85.334 65.4194 95.6403C65.4194 105.947 73.7565 114.344 84.1231 114.404ZM86.8851 85.2417C88.2022 83.9247 91.023 84.6102 93.1857 86.7728C95.3484 88.9355 96.0339 91.7564 94.7168 93.0734C93.3998 94.3905 90.5789 93.705 88.4163 91.5423C86.2536 89.3796 85.5681 86.5588 86.8851 85.2417Z" fill="#3E4347"/>
<path fill-rule="evenodd" clip-rule="evenodd" d="M169.396 114.404C179.702 114.404 188.039 105.947 188.039 95.6403C188.039 85.334 179.702 76.9366 169.396 76.9366C159.029 76.9366 150.692 85.334 150.692 95.6403C150.692 105.947 159.029 114.344 169.396 114.404ZM172.158 85.2417C173.475 83.9247 176.296 84.6102 178.458 86.7728C180.621 88.9355 181.307 91.7564 179.99 93.0734C178.673 94.3905 175.852 93.705 173.689 91.5423C171.526 89.3796 170.841 86.5588 172.158 85.2417Z" fill="#3E4347"/>
<path d="M191.517 53.4907C170.26 59.2139 158.275 62.4601 151.273 67.0914C147.713 69.4462 141.565 68.7769 139.022 65.3487C136.832 62.3973 138.473 59.0688 141.826 57.5657C162.044 48.503 180.145 46.9856 191.523 47.6021C199.028 48.0088 198.775 51.5365 191.517 53.4907Z" fill="#393939"/>
<path d="M52.3375 57.533C76.7077 62.0629 93.3199 64.7989 101.843 68.8558C105.286 70.4944 111.469 69.9178 113.923 66.9997C116.006 64.523 114.672 61.5426 111.707 60.2453C93.1275 52.1142 68.2073 51.4442 52.3753 52.4146C43.7125 52.9455 43.8047 55.9469 52.3375 57.533Z" fill="#393939"/>
</svg>
