<svg width="252" height="252" viewBox="0 0 252 252" fill="none" xmlns="http://www.w3.org/2000/svg">
<path d="M63.2593 128.538C41.8932 126.359 28.8048 111.241 34.2245 89.8743C26.0001 49.5 56.9854 61.5 78.5 61.5C99.9442 61.5 113.012 67.9771 114.519 90.0149C116.323 117.027 88.0069 131.099 63.2593 128.538Z" fill="white"/>
<path d="M104.565 86.4915C104.565 97.1589 95.9353 105.913 85.2679 105.913C74.5379 105.851 65.9087 97.1589 65.9087 86.4915C65.9087 75.824 74.5379 67.1323 85.2679 67.1323C95.9353 67.1323 104.565 75.824 104.565 86.4915Z" fill="#3E4347"/>
<path d="M94.6484 77.016C92.4099 74.7776 89.4902 74.068 88.127 75.4312C86.7638 76.7944 87.4733 79.7142 89.7118 81.9526C91.9503 84.1911 94.87 84.9006 96.2332 83.5374C97.5964 82.1742 96.8869 79.2545 94.6484 77.016Z" fill="white"/>
<path d="M179.987 125.741C201.642 123.523 221.069 100.249 218.5 78.5C215.853 56.7512 201.501 57.5 179.987 57.5C158.542 57.5 142.443 59.0562 138 81.5C132.588 108.996 154.888 128.349 179.987 125.741Z" fill="white"/>
<path d="M187.468 86.4915C187.468 97.1589 178.839 105.913 168.171 105.913C157.441 105.851 148.812 97.1589 148.812 86.4915C148.812 75.824 157.441 67.1323 168.171 67.1323C178.839 67.1323 187.468 75.824 187.468 86.4915Z" fill="#3E4347"/>
<path d="M177.543 77.0255C175.305 74.787 172.385 74.0775 171.022 75.4407C169.659 76.8039 170.368 79.7236 172.607 81.9621C174.845 84.2006 177.765 84.9101 179.128 83.5469C180.491 82.1837 179.782 79.2639 177.543 77.0255Z" fill="white"/>
<path fill-rule="evenodd" clip-rule="evenodd" d="M125.561 76.6674C128.01 76.7755 130.039 78.5962 130.406 81.0238C131.329 89.639 134.56 109.228 144.765 123.123C158.199 141.378 199.58 137.534 209.478 123.123C216.196 112.582 221.375 101.131 224.861 89.1259L229.169 88.3064C231.395 87.8588 233.067 86.0029 233.271 83.7423L235.065 64.0001C235.158 61.6466 233.635 59.529 231.374 58.8713C214.19 54.3089 196.488 52.0157 178.711 52.0518C163.24 51.5904 147.836 54.2779 133.433 59.9491C130.955 61.0819 128.263 61.6776 125.536 61.6931C122.807 61.6776 120.116 61.0819 117.638 59.9491C103.219 54.2728 87.8003 51.5853 72.3089 52.0518C54.5655 51.8883 36.8807 54.0421 19.6968 58.4615C17.4346 59.1175 15.9126 61.2351 16.0039 63.5904L17.8512 83.7423C18.0561 86.0029 19.7278 87.8588 21.9522 88.3064L26.2099 89.1259C29.7169 101.126 34.8956 112.571 41.5928 123.123C51.5406 137.534 92.8706 141.378 106.356 123.123C116.612 109.228 119.792 89.639 120.715 81.0238C121.084 78.5962 123.111 76.7755 125.561 76.6674ZM214.247 70.9229C219.734 79.3831 208.812 110.509 197.325 119.534C185.838 128.559 158.046 125.534 152.149 115.278C143.637 99.8949 139.843 78.4086 145.278 71.6907C150.713 64.9746 158.969 62.3077 179.224 62.3077C198.043 62.1545 210.658 65.281 214.247 70.9229ZM36.8241 70.9229C31.3372 79.3831 42.2593 110.509 54.0027 119.534C65.7444 128.559 93.0258 125.534 98.9224 115.278C107.434 99.8949 111.229 78.4086 105.794 71.6908C100.358 64.9746 92.1012 62.3077 71.8477 62.3077C53.0283 62.1545 40.3621 65.281 36.8241 70.9229Z" fill="#242424"/>
</svg>
