<svg width="252" height="252" viewBox="0 0 252 252" fill="none" xmlns="http://www.w3.org/2000/svg">
<path d="M68.2594 125.038C46.8932 122.859 33.8049 107.741 39.2245 86.3744C44.7144 65.0082 66.5335 47.7029 88.0481 47.7029C109.492 47.7029 118.012 64.4772 119.519 86.5149C121.323 113.527 93.0069 127.6 68.2594 125.038Z" fill="white"/>
<path d="M104.565 86.4915C104.565 97.1589 95.9354 105.913 85.268 105.913C74.538 105.851 65.9088 97.1589 65.9088 86.4915C65.9088 75.824 74.538 67.1323 85.268 67.1323C95.9354 67.1323 104.565 75.824 104.565 86.4915Z" fill="#3E4347"/>
<path d="M94.6485 77.0161C92.41 74.7776 89.4903 74.0681 88.1271 75.4313C86.7639 76.7945 87.4734 79.7142 89.7119 81.9527C91.9503 84.1911 94.87 84.9007 96.2333 83.5375C97.5965 82.1743 96.8869 79.2545 94.6485 77.0161Z" fill="white"/>
<path d="M179.987 125.741C201.642 123.523 216.745 108.123 214.176 86.3743C211.528 64.6255 192.021 47 170.506 47C149.062 47 138.309 64.0789 133.865 86.5227C128.453 114.019 154.888 128.349 179.987 125.741Z" fill="white"/>
<path d="M187.468 86.4915C187.468 97.1589 178.839 105.913 168.171 105.913C157.441 105.851 148.812 97.1589 148.812 86.4915C148.812 75.824 157.441 67.1323 168.171 67.1323C178.839 67.1323 187.468 75.824 187.468 86.4915Z" fill="#3E4347"/>
<path d="M177.543 77.0255C175.305 74.787 172.385 74.0775 171.022 75.4407C169.659 76.8039 170.368 79.7236 172.607 81.9621C174.845 84.2006 177.765 84.9101 179.128 83.5469C180.491 82.1837 179.782 79.2639 177.543 77.0255Z" fill="white"/>
</svg>
