<svg width="252" height="252" viewBox="0 0 252 252" fill="none" xmlns="http://www.w3.org/2000/svg">
<path d="M137.382 78.7353C137.382 104.226 167.595 135.874 198.507 123.984C212.636 118.481 222.875 105.111 224.474 89.9415C225.939 73.2326 217.439 57.4308 202.82 49.5634C178.935 37.4351 137.382 50.2847 137.382 78.7353Z" fill="white"/>
<path d="M53.9787 123.984C69.1186 129.807 84.4295 125.635 96.6545 114.86C116.278 97.7197 124.733 68.3991 99.0192 52.694C84.3329 43.7856 63.653 42.4619 49.8665 49.5634C19.0066 66.0121 20.9846 111.142 53.9787 123.984Z" fill="white"/>
<path d="M18.1217 42.5511H22.0183C32.8081 42.5511 23.4861 39.0482 33.9264 36.4009C53.2082 31.4559 96.2306 40.2534 108.969 53.4822C113.073 57.6613 118.851 58.5403 124.704 58.5403H127.626C133.545 58.5403 139.39 57.6539 143.495 53.4153C156.448 40.1864 198.924 31.4559 217.997 36.401C228.371 39.0482 219.596 42.5511 230.244 42.5511H234.423C236.996 42.5511 239.086 44.6407 239.086 47.2879V61.8404C239.086 63.7217 237.837 65.1792 236.163 66.0195L232.542 71.9386C232.542 72.4815 232.609 73.1136 232.825 73.6713C245.563 120.868 190.007 158.74 150.678 120.801C142.394 112.592 136.408 103.118 133.694 92.4028C132.861 89.064 128.184 89.5399 124.704 89.5399C121.29 89.5399 119.632 89.0566 118.866 92.4028C116.152 103.126 110.166 112.592 101.882 120.801C62.7533 158.607 6.99729 121.218 19.7353 73.6043L16.3966 66.0195C14.7234 65.1792 13.4742 63.6474 13.4742 61.7735V47.2879C13.4593 44.6332 15.5488 42.5511 18.1217 42.5511ZM158.188 113.371C185.196 137.249 218.056 117.106 220.979 89.5399C222.369 74.2215 214.502 59.8178 201.139 52.6419C179.902 41.7778 141.984 52.9171 141.984 78.7501C141.991 91.6295 148.655 105.087 158.188 113.371ZM31.5588 89.5399C34.4812 117.106 67.2744 137.249 94.3567 113.371C103.823 105.08 110.487 91.622 110.487 78.7501C110.487 52.9171 72.5689 41.7852 51.4727 52.6419C38.0356 59.8178 30.1682 74.2215 31.5588 89.5399Z" fill="#3E4347"/>
<path d="M80.1371 104.325C70.1657 104.325 62.0822 96.242 62.0822 86.2706C62.0822 76.2991 70.1657 68.2157 80.1371 68.2157C90.1085 68.2157 98.192 76.2991 98.192 86.2706C98.192 96.242 90.1085 104.325 80.1371 104.325Z" fill="#3E4347"/>
<path d="M70.6324 82.4103C72.7959 80.2468 75.7738 79.7171 77.2839 81.2272C78.7939 82.7373 78.2643 85.7152 76.1008 87.8787C73.9374 90.0421 70.9594 90.5718 69.4493 89.0617C67.9393 87.5517 68.469 84.5737 70.6324 82.4103Z" fill="white"/>
<path d="M173.309 103.189C163.337 103.189 155.254 95.1058 155.254 85.1343C155.254 75.1629 163.337 67.0794 173.309 67.0794C183.28 67.0794 191.364 75.1629 191.364 85.1343C191.364 95.1058 183.28 103.189 173.309 103.189Z" fill="#3E4347"/>
<path d="M163.801 81.27C165.965 79.1066 168.943 78.5769 170.453 80.0869C171.963 81.597 171.433 84.575 169.27 86.7384C167.106 88.9019 164.128 89.4315 162.618 87.9215C161.108 86.4114 161.638 83.4335 163.801 81.27Z" fill="white"/>
</svg>
