<svg width="252" height="252" viewBox="0 0 252 252" fill="none" xmlns="http://www.w3.org/2000/svg">
<path d="M41.5665 62.5241C64.3895 48.7463 84.2641 47.8767 96.6391 50.4199C101.3 51.3777 106.678 47.1298 107.099 42.3901C107.4 39.0047 104.98 37.1382 101.598 36.8032C74.0839 34.0777 50.6141 50.3419 39.6416 60.512C35.6565 64.2057 36.9148 65.3322 41.5665 62.5241Z" fill="#393939"/>
<path d="M213.429 54.2245C190.132 44.2145 171.139 45.704 159.506 49.5807C154.955 51.0974 149.05 47.4946 148.057 42.801C147.349 39.4565 149.54 37.3048 152.878 36.5648C178.519 30.8796 202.611 42.7744 215.345 51.5823C220.835 55.3797 219.562 56.8598 213.429 54.2245Z" fill="#393939"/>
<path fill-rule="evenodd" clip-rule="evenodd" d="M46.8763 116.08C56.3189 114.269 67.7264 113.241 80.0072 113.305C90.775 113.36 100.863 114.249 109.537 115.753C116.651 110.044 121 102.4 121 94C121 76.3269 101.748 62 78 62C54.2518 62 35 76.3269 35 94C35 102.561 39.5179 110.338 46.8763 116.08Z" fill="white"/>
<path fill-rule="evenodd" clip-rule="evenodd" d="M213.124 116.08C203.681 114.269 192.274 113.241 179.993 113.305C169.225 113.36 159.137 114.249 150.463 115.753C143.349 110.044 139 102.4 139 94C139 76.3269 158.252 62 182 62C205.748 62 225 76.3269 225 94C225 102.561 220.482 110.338 213.124 116.08Z" fill="white"/>
<path d="M112.32 91.1483C112.32 100.436 104.799 107.957 95.5112 107.9C86.2805 107.9 78.7593 100.436 78.7593 91.1483C78.7593 81.9177 86.2805 74.3964 95.5681 74.3964C104.799 74.4021 112.32 81.9177 112.32 91.1483Z" fill="#3E4347"/>
<path d="M84.8544 87.7092C83.7498 86.4803 84.5034 84.1386 86.4581 82.5189C88.3561 80.8948 90.7294 80.5078 91.834 81.7367C92.8774 83.018 92.1282 85.303 90.2302 86.9271C88.3278 88.608 85.8978 88.9905 84.8544 87.7092Z" fill="white"/>
<path d="M148 91.7519C148 101.039 155.521 108.561 164.809 108.504C174.039 108.504 181.561 101.039 181.561 91.7519C181.561 82.5213 174.039 75 164.752 75C155.521 75.0057 148 82.5213 148 91.7519Z" fill="#3E4347"/>
<path d="M155.122 88.561C156.262 89.7576 158.655 89.1878 160.421 87.3645C162.188 85.5981 162.758 83.262 161.618 82.0654C160.421 80.9258 158.085 81.4956 156.319 83.262C154.496 85.0283 153.926 87.4214 155.122 88.561Z" fill="white"/>
<path opacity="0.23" d="M109 123C109 129.627 98.2107 123 77.5 123C56.7893 123 44 129.627 44 123C44 116.373 56.7893 111 77.5 111C98.2107 111 109 116.373 109 123Z" fill="#817F7F" fill-opacity="0.29"/>
<path opacity="0.23" d="M214 123C214 129.627 203.211 123 182.5 123C161.789 123 149 129.627 149 123C149 116.373 161.789 111 182.5 111C203.211 111 214 116.373 214 123Z" fill="#817F7F" fill-opacity="0.29"/>
</svg>
