<svg width="252" height="252" viewBox="0 0 252 252" fill="none" xmlns="http://www.w3.org/2000/svg">
<path d="M49.1458 72.5041C61.6128 54.0381 76.3502 45.2918 87.1549 41.8802C91.6925 40.4475 94.3215 34.1188 92.3816 29.7738C90.9959 26.6703 87.9736 26.2182 84.8563 27.5723C63.4905 36.853 51.1952 56.5102 45.0821 70.9789C41.3226 79.8771 43.7407 80.5101 49.1458 72.5041Z" fill="#393939"/>
<path d="M203.387 72.3702C190.92 53.9043 176.183 45.1579 165.378 41.7464C160.841 40.3137 158.212 33.9849 160.152 29.64C161.537 26.5365 164.56 26.0843 167.677 27.4384C189.043 36.7192 201.338 56.3764 207.451 70.8451C211.211 79.7433 208.792 80.3762 203.387 72.3702Z" fill="#393939"/>
<path d="M222.136 139.796C218.717 150.171 206.566 139.782 188.563 133.85C170.561 127.918 153.523 128.688 156.942 118.314C160.361 107.939 177.726 104.338 195.729 110.27C213.732 116.203 225.554 129.422 222.136 139.796Z" fill="#FF0000" fill-opacity="0.15"/>
<path d="M32.0826 139.796C35.5012 150.171 47.6522 139.782 65.655 133.85C83.6578 127.918 100.695 128.688 97.2765 118.314C93.8579 107.939 76.4924 104.338 58.4896 110.27C40.4869 116.203 28.664 129.422 32.0826 139.796Z" fill="#FF0000" fill-opacity="0.15"/>
<path d="M141.965 111.431C165.187 108.37 189.602 113.506 204.69 125.028C208.193 127.741 213.04 124.353 211.796 120.072C203.007 89.2883 161.483 79.0077 138.183 104.103C135.385 107.201 137.888 111.968 141.965 111.431Z" fill="#3E4347"/>
<path d="M110.02 111.431C86.8001 108.37 62.3861 113.506 47.2991 125.028C43.797 127.741 38.9502 124.353 40.1943 120.072C48.9819 89.2883 90.5035 79.0077 113.803 104.103C116.607 107.201 114.105 111.968 110.02 111.431Z" fill="#3E4347"/>
</svg>
