<svg width="252" height="252" viewBox="0 0 252 252" fill="none" xmlns="http://www.w3.org/2000/svg">
<path d="M78 130C101.748 130 115.5 109.173 115.5 91.5C115.5 73.8269 101.748 62 78 62C54.0623 60.8187 34.814 79.1775 35 98C35 115.673 54.2518 130 78 130Z" fill="white"/>
<path d="M108.486 91.1482C108.486 103.162 98.7567 112.892 86.7424 112.818C74.8019 112.818 65.0725 103.162 65.0725 91.1482C65.0725 79.2077 74.8018 69.4783 86.8161 69.4783C98.7567 69.4857 108.486 79.2077 108.486 91.1482Z" fill="#3E4347"/>
<path d="M72.9571 86.6995C71.5282 85.1098 72.503 82.0806 75.0317 79.9854C77.4869 77.8845 80.5569 77.3839 81.9858 78.9736C83.3355 80.6311 82.3664 83.5869 79.9112 85.6878C77.4503 87.8622 74.3068 88.357 72.9571 86.6995Z" fill="white"/>
<path d="M173.5 128.5C197.248 128.5 213.5 113.673 213.5 96C213.5 78.3269 198.748 62 175 62C151.252 62 136.5 74.3269 136.5 92C136.5 109.673 149.752 128.5 173.5 128.5Z" fill="white"/>
<path d="M142.273 91.1482C142.273 103.162 152.003 112.892 164.017 112.818C175.957 112.818 185.687 103.162 185.687 91.1482C185.687 79.2077 175.957 69.4783 163.943 69.4783C152.003 69.4857 142.273 79.2077 142.273 91.1482Z" fill="#3E4347"/>
<path d="M151.487 87.0206C152.961 88.5685 156.056 87.8314 158.341 85.4728C160.626 83.1879 161.363 80.1659 159.889 78.618C158.341 77.1439 155.319 77.881 153.035 80.1659C150.676 82.4508 149.939 85.5465 151.487 87.0206Z" fill="white"/>
<path d="M47.5254 59.1775C67.8324 48.6196 85.3541 48.1007 96.6391 50.4199C101.3 51.3777 106.678 47.1298 107.099 42.3901C107.4 39.0047 104.98 37.1382 101.598 36.8032C77.8491 34.4507 57.1134 46.246 44.8268 56.0586C37.7505 61.71 39.4904 63.3549 47.5254 59.1775Z" fill="#393939"/>
<path d="M201.667 57.1433C179.288 52.343 162.255 56.4849 151.988 61.7111C147.747 63.8696 141.436 61.1983 139.775 56.7396C138.588 53.5548 140.426 51.1139 143.599 49.8948C165.875 41.3343 188.995 47.2143 203.443 53.4209C211.763 56.9955 210.521 59.0426 201.667 57.1433Z" fill="#393939"/>
</svg>
