<svg width="252" height="252" viewBox="0 0 252 252" fill="none" xmlns="http://www.w3.org/2000/svg">
<path fill-rule="evenodd" clip-rule="evenodd" d="M46.8763 62C56.3189 63.8108 67.7264 64.8391 80.0072 64.7755C90.775 64.7197 100.863 63.8316 109.537 62.3271C116.651 68.0362 121 75.6802 121 84.0801C121 101.753 101.748 116.08 78 116.08C54.2518 116.08 35 101.753 35 84.0801C35 75.5187 39.5179 67.7426 46.8763 62Z" fill="white"/>
<path d="M182 52.0801C158.252 52.0801 139 66.407 139 84.0801C139 101.753 158.252 116.08 182 116.08C205.748 116.08 225 101.753 225 84.0801C225 66.407 205.748 52.0801 182 52.0801Z" fill="white"/>
<path d="M112.32 91.1483C112.32 100.436 104.799 107.957 95.5112 107.9C86.2805 107.9 78.7593 100.436 78.7593 91.1483C78.7593 81.9177 86.2805 74.3964 95.5681 74.3964C104.799 74.4021 112.32 81.9177 112.32 91.1483Z" fill="#3E4347"/>
<path d="M84.8544 87.7092C83.7498 86.4803 84.5034 84.1386 86.4581 82.5189C88.3561 80.8948 90.7294 80.5078 91.834 81.7367C92.8774 83.018 92.1282 85.303 90.2302 86.9271C88.3278 88.608 85.8978 88.9905 84.8544 87.7092Z" fill="white"/>
<path d="M148 91.7519C148 101.039 155.521 108.561 164.809 108.504C174.039 108.504 181.561 101.039 181.561 91.7519C181.561 82.5213 174.039 75 164.752 75C155.521 75.0057 148 82.5213 148 91.7519Z" fill="#3E4347"/>
<path d="M155.122 88.561C156.262 89.7576 158.655 89.1878 160.421 87.3645C162.188 85.5981 162.758 83.262 161.618 82.0654C160.421 80.9258 158.085 81.4956 156.319 83.262C154.496 85.0283 153.926 87.4214 155.122 88.561Z" fill="white"/>
<path d="M40.2711 62.7512C66.9304 62.7081 84.3791 53.1529 93.6451 44.5652C97.135 41.3307 103.936 42.1771 106.752 46.0126C108.763 48.7522 107.661 51.6024 104.942 53.6416C82.8229 70.23 54.322 68.4818 39.6676 65.4695C34.3452 64.3755 34.8375 62.76 40.2711 62.7512Z" fill="#393939"/>
<path d="M213.429 56.2245C190.132 46.2145 171.139 47.704 159.506 51.5807C154.955 53.0974 149.05 49.4946 148.057 44.801C147.349 41.4565 149.54 39.3048 152.878 38.5648C178.519 32.8796 202.611 44.7744 215.345 53.5823C220.835 57.3797 219.562 58.8598 213.429 56.2245Z" fill="#393939"/>
</svg>
