<svg width="252" height="252" viewBox="0 0 252 252" fill="none" xmlns="http://www.w3.org/2000/svg">
<path d="M68.2594 125.038C46.8932 122.859 33.8049 107.741 39.2245 86.3744C44.7144 65.0082 66.5335 47.7029 88.0481 47.7029C109.492 47.7029 118.012 64.4772 119.519 86.5149C121.323 113.527 93.0069 127.6 68.2594 125.038Z" fill="white"/>
<path d="M106.656 70.3592C106.656 81.0267 98.0267 89.7808 87.3592 89.7808C76.6292 89.7184 68 81.0267 68 70.3592C68 59.6917 76.6292 51 87.3592 51C98.0267 51 106.656 59.6917 106.656 70.3592Z" fill="#3E4347"/>
<path d="M96.7396 60.8838C94.5011 58.6453 91.5814 57.9358 90.2182 59.299C88.855 60.6622 89.5645 63.5819 91.803 65.8204C94.0414 68.0588 96.9612 68.7684 98.3244 67.4052C99.6876 66.042 98.9781 63.1222 96.7396 60.8838Z" fill="white"/>
<path d="M179.987 125.741C201.642 123.523 216.745 108.123 214.176 86.3743C211.528 64.6255 192.021 47 170.506 47C149.062 47 138.309 64.0789 133.865 86.5227C128.453 114.019 154.888 128.349 179.987 125.741Z" fill="white"/>
<path d="M189.559 70.3592C189.559 81.0267 180.93 89.7808 170.262 89.7808C159.532 89.7184 150.903 81.0267 150.903 70.3592C150.903 59.6917 159.532 51 170.262 51C180.93 51 189.559 59.6917 189.559 70.3592Z" fill="#3E4347"/>
<path d="M179.634 60.8932C177.396 58.6547 174.476 57.9452 173.113 59.3084C171.75 60.6716 172.459 63.5913 174.698 65.8298C176.936 68.0683 179.856 68.7778 181.219 67.4146C182.582 66.0514 181.873 63.1317 179.634 60.8932Z" fill="white"/>
</svg>
