<svg width="252" height="252" viewBox="0 0 252 252" fill="none" xmlns="http://www.w3.org/2000/svg">
<path d="M66.2594 125.335C44.8932 123.156 31.8049 108.038 37.2245 86.6715C42.7144 65.3053 64.5335 48 86.0481 48C107.492 48 116.012 64.7743 117.519 86.8121C119.323 113.824 91.0069 127.897 66.2594 125.335Z" fill="white"/>
<path fill-rule="evenodd" clip-rule="evenodd" d="M84.3592 114.781C95.0267 114.781 103.656 106.027 103.656 95.3592C103.656 84.6917 95.0267 76 84.3592 76C73.6292 76 65 84.6917 65 95.3592C65 106.027 73.6292 114.718 84.3592 114.781ZM87.2181 84.5961C88.5813 83.2329 91.501 83.9425 93.7395 86.1809C95.9779 88.4194 96.6875 91.3391 95.3243 92.7023C93.9611 94.0655 91.0413 93.356 88.8029 91.1175C86.5644 88.8791 85.8549 85.9593 87.2181 84.5961Z" fill="#3E4347"/>
<path d="M139.965 98.4313C163.187 95.3696 187.602 100.506 202.69 112.028C206.193 114.741 211.04 111.353 209.796 107.072C201.007 76.2883 159.483 66.0077 136.183 91.1035C133.385 94.2015 135.888 98.9682 139.965 98.4313Z" fill="#3E4347"/>
<path d="M45.8237 63.7584C61.8631 48.2939 78.0989 42.8086 89.3773 41.7221C94.1137 41.2659 98.0031 35.6234 97.0106 30.9697C96.3017 27.6457 93.4399 26.574 90.1089 27.2492C67.2787 31.8766 51.1591 48.5421 42.1667 61.4204C36.6365 69.3405 38.8698 70.4632 45.8237 63.7584Z" fill="#393939"/>
<path d="M201.387 59.3702C188.92 40.9043 174.183 32.1579 163.378 28.7464C158.841 27.3137 156.212 20.9849 158.152 16.64C159.537 13.5365 162.56 13.0843 165.677 14.4384C187.043 23.7192 199.338 43.3764 205.451 57.8451C209.211 66.7433 206.792 67.3762 201.387 59.3702Z" fill="#393939"/>
</svg>
